<?xml version="1.0" encoding="UTF-8" standalone="no"?>
<svg width="28px" height="28px" viewBox="0 0 28 28" version="1.1" xmlns="http://www.w3.org/2000/svg" xmlns:xlink="http://www.w3.org/1999/xlink" xmlns:sketch="http://www.bohemiancoding.com/sketch/ns">
    <!-- Generator: Sketch 3.1.1 (8761) - http://www.bohemiancoding.com/sketch -->
    <title>Link</title>
    <desc>Created with Sketch.</desc>
    <defs></defs>
    <g id="Page-1" stroke="none" stroke-width="1" fill="none" fill-rule="evenodd" sketch:type="MSPage">
        <g id="link" sketch:type="MSArtboardGroup" fill="#231F1F">
            <g id="Link" sketch:type="MSLayerGroup">
                <path d="M19.167,16.0649 C18.341,16.0649 17.448,15.6549 16.646,14.8529 C16.451,14.6579 16.451,14.3409 16.646,14.1459 C16.842,13.9509 17.158,13.9509 17.354,14.1459 C18.354,15.1459 19.449,15.3429 20.146,14.6459 L26.025,8.7669 C27,7.7929 27,6.2069 26.025,5.2319 L22.768,1.9739 C21.793,0.9999 20.207,0.9999 19.232,1.9739 L13.354,7.8529 C12.657,8.5489 12.854,9.6459 13.854,10.6459 C14.049,10.8409 14.049,11.1579 13.854,11.3529 C13.658,11.5479 13.342,11.5479 13.146,11.3529 C11.739,9.9449 11.538,8.2539 12.646,7.1459 L18.525,1.2669 C19.89,-0.0971 22.11,-0.0971 23.475,1.2669 L26.732,4.5239 C28.097,5.8889 28.097,8.1099 26.732,9.4739 L20.854,15.3529 C20.376,15.8309 19.791,16.0649 19.167,16.0649" id="Fill-2864" sketch:type="MSShapeGroup"></path>
                <path d="M7.0562,27.7505 C6.1232,27.7505 5.2472,27.3885 4.5902,26.7315 L1.2682,23.4085 C0.6092,22.7505 0.2472,21.8725 0.2492,20.9365 C0.2502,20.0005 0.6162,19.1235 1.2782,18.4665 L7.1482,12.6445 C8.2552,11.5375 9.9462,11.7385 11.3532,13.1465 C11.5492,13.3415 11.5492,13.6575 11.3532,13.8535 C11.1582,14.0485 10.8422,14.0485 10.6462,13.8535 C9.8502,13.0575 8.6982,12.5085 7.8532,13.3535 L1.9822,19.1765 C1.5102,19.6445 1.2502,20.2695 1.2492,20.9385 C1.2472,21.6055 1.5052,22.2315 1.9752,22.7015 L5.2972,26.0245 C5.7652,26.4925 6.3902,26.7505 7.0562,26.7505 L7.0622,26.7505 C7.7302,26.7495 8.3552,26.4885 8.8232,26.0175 L14.6452,20.1475 C15.4912,19.3005 14.9422,18.1485 14.1462,17.3535 C13.9512,17.1575 13.9512,16.8415 14.1462,16.6465 C14.3422,16.4505 14.6582,16.4505 14.8532,16.6465 C16.2612,18.0535 16.4622,19.7445 15.3532,20.8535 L9.5332,26.7215 C8.8772,27.3825 8.0002,27.7485 7.0642,27.7505 L7.0562,27.7505 Z" id="Fill-2865" sketch:type="MSShapeGroup"></path>
                <path d="M9,19.4995 C8.872,19.4995 8.744,19.4505 8.646,19.3535 C8.451,19.1575 8.451,18.8415 8.646,18.6455 L18.646,8.6455 C18.842,8.4505 19.158,8.4505 19.354,8.6455 C19.549,8.8415 19.549,9.1575 19.354,9.3535 L9.354,19.3535 C9.256,19.4505 9.128,19.4995 9,19.4995" id="Fill-2866" sketch:type="MSShapeGroup"></path>
            </g>
        </g>
    </g>
</svg>