<?xml version="1.0" encoding="UTF-8" standalone="no"?>
<svg width="50px" height="49px" viewBox="0 0 50 49" version="1.1" xmlns="http://www.w3.org/2000/svg" xmlns:xlink="http://www.w3.org/1999/xlink">
    <g id="Page-1" stroke="none" stroke-width="1" fill="none" fill-rule="evenodd">
        <g id="kollegorna-k" fill="#222222">
            <path d="M36.4666855,49 C46.8326285,49 47.2645428,39.9343279 46.7606428,39.9343279 C43.6652571,39.7881074 41.7936285,38.3259022 39.8500142,34.3779482 L36.0347713,26.6282607 L45.6808571,16.6852655 C48.6322714,13.8339654 50,11.1288858 50,8.64313698 C50,1.77077263 39.130157,-0.203204365 38.9141999,0.016126412 L22.2854996,20.1214477 L24.5890425,9.1549088 C25.740814,3.67163937 22.9333711,0.747229003 18.1823139,0.747229003 L15.5188424,0.747229003 C10.5518281,0.747229003 8.03232804,3.30608807 6.8805566,8.86246776 L0.257870797,40.3729894 C-0.893900646,45.8562589 1.91354225,48.7806692 6.66459945,48.7806692 L9.18409948,48.7806692 C14.2950853,48.7806692 16.8145853,46.0024794 17.9663567,40.5192099 L20.1979139,29.8451121 L23.725214,38.9107842 C26.244714,45.4175973 28.9801712,49 36.4666855,49 L36.4666855,49 Z" id="K"></path>
        </g>
    </g>
</svg>
